<svg width="35" height="35" viewBox="0 0 35 35" fill="none" xmlns="http://www.w3.org/2000/svg">
<g id="bars-solid 1">
<path id="Vector" d="M0 6.5625C0 5.35254 1.11719 4.375 2.5 4.375H32.5C33.8828 4.375 35 5.35254 35 6.5625C35 7.77246 33.8828 8.75 32.5 8.75H2.5C1.11719 8.75 0 7.77246 0 6.5625ZM0 17.5C0 16.29 1.11719 15.3125 2.5 15.3125H32.5C33.8828 15.3125 35 16.29 35 17.5C35 18.71 33.8828 19.6875 32.5 19.6875H2.5C1.11719 19.6875 0 18.71 0 17.5ZM35 28.4375C35 29.6475 33.8828 30.625 32.5 30.625H2.5C1.11719 30.625 0 29.6475 0 28.4375C0 27.2275 1.11719 26.25 2.5 26.25H32.5C33.8828 26.25 35 27.2275 35 28.4375Z" fill="white"/>
</g>
</svg>
