<svg width="45" height="45" viewBox="0 0 45 45" fill="none" xmlns="http://www.w3.org/2000/svg">
<g clip-path="url(#clip0_9_7)">
<path d="M36.5625 18.2812C36.5625 22.3154 35.2529 26.042 33.0469 29.0654L44.1738 40.2012C45.2725 41.2998 45.2725 43.084 44.1738 44.1826C43.0752 45.2812 41.291 45.2812 40.1924 44.1826L29.0654 33.0469C26.042 35.2617 22.3154 36.5625 18.2812 36.5625C8.18262 36.5625 0 28.3799 0 18.2812C0 8.18262 8.18262 0 18.2812 0C28.3799 0 36.5625 8.18262 36.5625 18.2812ZM18.2812 30.9375C19.9433 30.9375 21.5891 30.6101 23.1246 29.9741C24.6601 29.3381 26.0553 28.4058 27.2306 27.2306C28.4058 26.0553 29.3381 24.6601 29.9741 23.1246C30.6101 21.5891 30.9375 19.9433 30.9375 18.2812C30.9375 16.6192 30.6101 14.9734 29.9741 13.4379C29.3381 11.9024 28.4058 10.5072 27.2306 9.33193C26.0553 8.15669 24.6601 7.22444 23.1246 6.5884C21.5891 5.95236 19.9433 5.625 18.2812 5.625C16.6192 5.625 14.9734 5.95236 13.4379 6.5884C11.9024 7.22444 10.5072 8.15669 9.33193 9.33193C8.15669 10.5072 7.22444 11.9024 6.5884 13.4379C5.95236 14.9734 5.625 16.6192 5.625 18.2812C5.625 19.9433 5.95236 21.5891 6.5884 23.1246C7.22444 24.6601 8.15669 26.0553 9.33193 27.2306C10.5072 28.4058 11.9024 29.3381 13.4379 29.9741C14.9734 30.6101 16.6192 30.9375 18.2812 30.9375Z" fill="black"/>
</g>
<defs>
<clipPath id="clip0_9_7">
<rect width="45" height="45" fill="white"/>
</clipPath>
</defs>
</svg>
