<svg width="50" height="50" viewBox="0 0 50 50" fill="none" xmlns="http://www.w3.org/2000/svg">
<g id="opencart 1">
<path id="Vector" d="M33.0703 43.0371C33.0703 45.5078 31.4844 47.4902 29.5078 47.4902C27.5313 47.4902 25.9297 45.5078 25.9297 43.0371C25.9297 40.5664 27.5391 38.5645 29.5078 38.5645C31.4922 38.5645 33.0703 40.5664 33.0703 43.0371ZM13.2344 38.5645C11.2578 38.5645 9.67188 40.5762 9.67188 43.0371C9.67188 45.498 11.2578 47.4902 13.2344 47.4902C15.2109 47.4902 16.8125 45.5078 16.8125 43.0371C16.8125 40.5664 15.2109 38.5645 13.2344 38.5645ZM36.0234 12.1973C12.4141 12.1973 6.39844 10.9473 0 2.50977C2.6875 7.55859 4.16406 17.0508 29.1484 16.5918C55.1875 16.1035 39.3047 25 34.6797 35.0391C49.2656 18.7598 59.6328 12.1973 36.0234 12.1973Z" fill="black"/>
</g>
</svg>
