<svg width="40" height="40" viewBox="0 0 40 40" fill="none" xmlns="http://www.w3.org/2000/svg">
<g clip-path="url(#clip0_2_15)">
<path d="M2.3 15H37.7C38.9688 15 40 13.7109 40 12.125C40 11.5547 39.8625 11 39.6125 10.5312L34.8875 1.67188C34.3312 0.625 33.4 0 32.3937 0H7.60625C6.60625 0 5.66875 0.625 5.1125 1.67188L0.3875 10.5234C0.1375 11 0 11.5547 0 12.1172C0 13.7109 1.03125 15 2.3 15ZM4 17.5V30V36.25C4 38.3203 5.34375 40 7 40H21C22.6562 40 24 38.3203 24 36.25V30V17.5H20V30H8V17.5H4ZM32 17.5V37.5C32 38.8828 32.8937 40 34 40C35.1063 40 36 38.8828 36 37.5V17.5H32Z" fill="#C9C9C9"/>
</g>
<defs>
<clipPath id="clip0_2_15">
<rect width="40" height="40" fill="white"/>
</clipPath>
</defs>
</svg>
